<svg version="1.1" xmlns="http://www.w3.org/2000/svg" width="16" height="16" viewBox="0 0 16 16" fill="#2196F3">
<title>email-black</title>
<path d="M13.333 2.667h-10.667c-0.733 0-1.327 0.6-1.327 1.333l-0.007 8c0 0.733 0.6 1.333 1.333 1.333h10.667c0.733 0 1.333-0.6 1.333-1.333v-8c0-0.733-0.6-1.333-1.333-1.333zM13.067 5.5l-4.713 2.947c-0.213 0.133-0.493 0.133-0.707 0l-4.713-2.947c-0.167-0.107-0.267-0.287-0.267-0.48 0-0.447 0.487-0.713 0.867-0.48l4.467 2.793 4.467-2.793c0.38-0.233 0.867 0.033 0.867 0.48 0 0.193-0.1 0.373-0.267 0.48z"></path>
</svg>