<!-- Generated by IcoMoon.io -->
<svg version="1.1" xmlns="http://www.w3.org/2000/svg" width="16" height="16" viewBox="0 0 16 16">
<title>envelope</title>
<path d="M14.5 2h-13c-0.827 0-1.5 0.673-1.5 1.5v9c0 0.827 0.673 1.5 1.5 1.5h13c0.827 0 1.5-0.673 1.5-1.5v-9c0-0.827-0.673-1.5-1.5-1.5zM14.5 3c0.068 0 0.133 0.014 0.192 0.039l-6.692 5.8-6.692-5.8c0.059-0.025 0.124-0.039 0.192-0.039h13zM14.5 13h-13c-0.276 0-0.5-0.224-0.5-0.5v-8.405l6.672 5.783c0.094 0.082 0.211 0.122 0.328 0.122s0.233-0.041 0.328-0.122l6.672-5.783v8.405c0 0.276-0.224 0.5-0.5 0.5z"></path>
</svg>
