<!-- Generated by IcoMoon.io -->
<svg version="1.1" xmlns="http://www.w3.org/2000/svg" width="106" height="60" viewBox="0 0 28 16">
<title>Logo1</title>
<path d="M10.133 1.867l1.869 1.769-3.469-0.002v8.583h9.067v-3.282l1.867 1.767v-8.836h-9.333zM17.518 8.728l-5.299-5.016h5.299v5.016zM15.873 10.961h-5.905v-5.773h0.417v5.382h5.487v0.391zM11.362 13.36l-0.218 0.449-0.218-0.449h-0.183l0.318 0.599v0.349h0.165v-0.349l0.318-0.599h-0.182zM11.636 14.308l0.077-0.221h0.367l0.077 0.221h0.172l-0.359-0.948h-0.148l-0.358 0.948h0.171zM11.897 13.561l0.137 0.393h-0.275l0.137-0.393zM12.765 13.931c-0.024 0.036-0.036 0.077-0.036 0.12 0 0.080 0.028 0.145 0.084 0.195s0.132 0.074 0.225 0.074 0.174-0.025 0.242-0.076l0.053 0.063h0.184l-0.139-0.165c0.055-0.075 0.082-0.17 0.082-0.287h-0.137c0 0.064-0.013 0.122-0.040 0.174l-0.183-0.216 0.064-0.047c0.046-0.033 0.078-0.066 0.098-0.099s0.030-0.070 0.030-0.109c0-0.060-0.022-0.11-0.066-0.15s-0.1-0.061-0.169-0.061c-0.076 0-0.137 0.022-0.182 0.065s-0.068 0.102-0.068 0.176c0 0.030 0.007 0.062 0.021 0.094s0.041 0.072 0.077 0.118c-0.070 0.050-0.117 0.094-0.141 0.131zM13.193 14.141c-0.046 0.036-0.096 0.053-0.15 0.053-0.047 0-0.085-0.014-0.113-0.041s-0.042-0.063-0.042-0.107c0-0.051 0.026-0.096 0.078-0.135l0.020-0.014 0.207 0.244zM13.023 13.721c-0.045-0.055-0.067-0.101-0.067-0.137 0-0.032 0.009-0.058 0.027-0.079s0.043-0.031 0.074-0.031c0.029 0 0.052 0.009 0.071 0.027s0.028 0.038 0.028 0.063c0 0.037-0.013 0.068-0.040 0.092l-0.020 0.016-0.072 0.049zM14.566 14.236c0.065-0.057 0.102-0.136 0.112-0.237h-0.164c-0.009 0.068-0.029 0.116-0.062 0.145s-0.081 0.044-0.146 0.044c-0.071 0-0.125-0.027-0.161-0.081s-0.055-0.132-0.055-0.234v-0.084c0.001-0.101 0.020-0.178 0.059-0.23s0.094-0.079 0.165-0.079c0.062 0 0.108 0.015 0.14 0.046s0.052 0.079 0.060 0.147h0.164c-0.010-0.104-0.048-0.184-0.111-0.241s-0.148-0.085-0.253-0.085c-0.078 0-0.146 0.018-0.206 0.055s-0.104 0.089-0.136 0.158c-0.032 0.068-0.048 0.147-0.048 0.236v0.089c0.001 0.087 0.018 0.164 0.049 0.23s0.076 0.117 0.133 0.153c0.058 0.036 0.124 0.053 0.2 0.053 0.108 0 0.195-0.028 0.26-0.085zM15.534 14.103c0.032-0.070 0.048-0.152 0.048-0.245v-0.053c-0-0.092-0.017-0.173-0.050-0.243s-0.079-0.123-0.139-0.16c-0.059-0.037-0.128-0.056-0.205-0.056s-0.146 0.019-0.206 0.057c-0.059 0.037-0.106 0.091-0.139 0.162s-0.049 0.152-0.049 0.245v0.053c0 0.091 0.017 0.171 0.049 0.24s0.079 0.123 0.139 0.161c0.060 0.037 0.129 0.056 0.206 0.056s0.146-0.019 0.206-0.056c0.060-0.038 0.106-0.092 0.138-0.161zM15.358 13.567c0.040 0.056 0.060 0.136 0.060 0.242v0.049c0 0.107-0.020 0.188-0.059 0.243s-0.095 0.083-0.168 0.083c-0.072 0-0.128-0.028-0.169-0.085s-0.061-0.137-0.061-0.242v-0.055c0.001-0.102 0.021-0.181 0.061-0.236s0.096-0.084 0.167-0.084c0.073 0 0.129 0.028 0.169 0.084z"></path>
</svg>
