<!-- Generated by IcoMoon.io -->
<svg version="1.1" xmlns="http://www.w3.org/2000/svg" width="16" height="16" viewBox="0 0 16 16">
<title>phone-black</title>
<path d="M12.441 9.887l-1.634-0.186c-0.392-0.045-0.778 0.090-1.055 0.367l-1.184 1.184c-1.82-0.926-3.313-2.412-4.239-4.239l1.19-1.19c0.277-0.277 0.412-0.663 0.367-1.055l-0.187-1.621c-0.077-0.65-0.624-1.139-1.28-1.139h-1.113c-0.727 0-1.332 0.605-1.287 1.332 0.341 5.494 4.734 9.881 10.222 10.222 0.727 0.045 1.332-0.56 1.332-1.286v-1.113c0.006-0.65-0.482-1.196-1.132-1.274z"></path>
</svg>
